<?xml version="1.0" encoding="UTF-8" standalone="no"?>
<!DOCTYPE svg PUBLIC "-//W3C//DTD SVG 1.1//EN" "http://www.w3.org/Graphics/SVG/1.1/DTD/svg11.dtd">
<svg width="100%" height="100%" viewBox="0 0 2048 1024" version="1.1" xmlns="http://www.w3.org/2000/svg" xmlns:xlink="http://www.w3.org/1999/xlink" xml:space="preserve" xmlns:serif="http://www.serif.com/" style="fill-rule:evenodd;clip-rule:evenodd;stroke-linejoin:round;stroke-miterlimit:2;">
    <rect x="0.211" y="-2.097" width="2048.84" height="1025.68" style="fill:rgb(245,240,232);"/>
    <g transform="matrix(0.742657,0,0,0.742657,463.287,507.244)">
        <g transform="matrix(1,0,0,1,-594.88,-625.276)">
            <clipPath id="_clip1">
                <rect x="0" y="0" width="1189.76" height="1250.55"/>
            </clipPath>
            <g clip-path="url(#_clip1)">
                <g transform="matrix(-2.08343,0,0,2.08343,3103.03,-430.435)">
                    <path d="M1064,805.432C1057.12,804.736 1049.92,804.122 1048,804.068C1041.53,803.886 1047.04,802.032 1054.1,802.015C1060.67,802 1088.01,799.27 1110,796.434C1135.24,793.179 1168.45,786.863 1194.18,780.423C1199.51,779.09 1204.25,778 1204.73,778C1205.21,778 1206.15,779.523 1206.82,781.385C1208.01,784.673 1216.11,793.174 1219.05,794.211C1221.88,795.215 1219.04,796.164 1205.98,798.578C1188.9,801.733 1164.54,804.698 1145,805.998C1124.72,807.348 1079.82,807.034 1064,805.432Z" style="fill:rgb(28,28,30);fill-rule:nonzero;"/>
                </g>
                <g transform="matrix(-2.08343,0,0,2.08343,3103.03,-430.435)">
                    <path d="M1229.69,790.028C1218.64,785.708 1212.61,777.782 1212.64,767.592C1212.66,760.3 1215.14,754.836 1220.62,750.03C1232.54,739.562 1251.96,740.086 1262.89,751.17C1267.47,755.813 1269.14,759.425 1269.73,765.958C1270.15,770.649 1269.82,772.431 1267.7,776.609C1262.53,786.812 1253.27,792.051 1240.57,791.953C1237.11,791.927 1232.43,791.098 1229.69,790.028Z" style="fill:rgb(201,168,76);fill-rule:nonzero;"/>
                </g>
                <g transform="matrix(-2.08343,0,0,2.08343,3103.03,-430.435)">
                    <path d="M1275.23,777.75C1276.41,774.706 1277.31,769.875 1277.38,766.251L1277.5,760.002L1284,757.855C1300.3,752.471 1329.33,738.604 1345.57,728.45C1364.9,716.354 1393.82,691.854 1404.15,678.81L1407.23,674.921L1403.48,669.21C1398.13,661.073 1383.03,646.521 1372.5,639.359C1361.62,631.959 1341.31,621.633 1324.14,614.781C1317.19,612.004 1292.15,603.322 1268.5,595.489C1244.85,587.655 1221.9,579.807 1217.5,578.049C1195.91,569.419 1190.62,560.393 1201.47,550.683C1205.21,547.336 1219.33,541.234 1239,534.469C1274.45,522.273 1288.4,515.69 1295.48,507.808C1300.31,502.442 1301.65,498.308 1300.53,492.25C1299.58,487.104 1291.56,479.543 1281.99,474.766C1272.39,469.98 1243.41,460.609 1216.13,453.474C1191.12,446.931 1185.14,444.841 1182.07,441.579C1176.96,436.138 1181.1,433.127 1204.3,425.414C1233.53,415.693 1242.04,411.437 1241.97,406.576C1241.92,403.655 1240.37,401.964 1233.4,397.254C1224.67,391.35 1218.52,384.002 1213.42,373.397C1210.99,368.326 1209,363.699 1209,363.114C1209,362.53 1210.31,361.374 1211.91,360.547C1213.51,359.719 1216.21,357.354 1217.91,355.291L1221,351.54L1236.62,367.77C1245.2,376.697 1253.01,384 1253.96,384C1254.91,384 1261.51,389.85 1268.62,397C1275.74,404.15 1282.04,410 1282.63,410C1283.22,410 1287.15,407.525 1291.37,404.5C1295.58,401.475 1299.66,399 1300.44,399C1301.21,399 1304.24,401.163 1307.17,403.807C1310.1,406.45 1323.75,418.446 1337.5,430.463C1351.25,442.48 1363.49,453.201 1364.7,454.288L1366.91,456.263L1376.85,450.631C1382.33,447.534 1387.12,445 1387.51,445C1387.9,445 1404.49,457.512 1424.36,472.805C1444.24,488.098 1462.26,501.932 1464.41,503.548L1468.32,506.485L1467.69,489.992C1466.24,451.969 1456.5,414.493 1438.86,379C1412.75,326.461 1371.73,284.453 1320.66,257.94C1264.73,228.906 1208.2,220.282 1150.92,232.046C1128.83,236.583 1097.34,248.524 1076.5,260.27C1031.75,285.495 994.246,324.303 971.669,368.758C954.136,403.28 945.422,432.663 941.493,470.5C940.092,483.999 939.456,509 940.515,509C940.798,509 956.435,497.413 975.264,483.25C994.093,469.087 1009.87,457.339 1010.32,457.143C1010.77,456.946 1015.78,459.181 1021.44,462.11L1031.73,467.434L1067.12,437.057C1086.58,420.349 1103.32,405.974 1104.33,405.111C1106.02,403.664 1106.84,403.892 1115.03,408.084L1123.9,412.625L1138.13,398.367C1145.96,390.524 1152.81,384.381 1153.35,384.714C1153.88,385.046 1161.34,377.988 1169.91,369.028L1185.5,352.737L1189.57,356.803C1191.81,359.04 1194.95,361.162 1196.57,361.519C1198.18,361.875 1200.03,362.33 1200.69,362.528C1202.2,362.989 1203.81,368.772 1204.63,376.723C1205.26,382.846 1205.23,382.964 1202.49,384.002L1199.72,385.058L1206.86,392.422C1216.26,402.117 1216.29,404.309 1207.11,408.944C1201.99,411.528 1195.75,413.609 1164.5,423.144C1140.93,430.335 1132.59,438.512 1140.32,446.846C1143.35,450.11 1160.03,457.991 1175.5,463.474C1205.23,474.007 1211.05,476.302 1216.27,479.571C1223,483.779 1225.08,487.701 1222.6,491.49C1219.24,496.618 1207.82,500.908 1167,512.38C1096.28,532.253 1071.69,547.24 1071.64,570.501C1071.6,587.351 1085.77,602.089 1122.5,623.417C1147.81,638.109 1155.66,643.526 1164.57,652.433C1173.7,661.555 1176.71,666.927 1178.25,676.84C1179.17,682.83 1179.05,684.484 1177.18,690.575C1166.94,724.001 1108.73,757.832 1033,774.378C1021.29,776.937 1005.09,779.42 1004.43,778.758C1004.22,778.557 1009.56,775.993 1016.28,773.059C1023,770.125 1035.14,764.359 1043.25,760.245L1058,752.765L1045.85,744.822C1016.49,725.621 992.698,703.028 973.211,675.851C942.002,632.325 922.945,576.876 918.94,517.946C913.842,442.926 940.173,362.794 988.584,306C996.625,296.567 1015.24,278.075 1024.5,270.33C1062.1,238.868 1110.54,216.912 1160.3,208.784C1171.41,206.969 1177.7,206.623 1200,206.599C1229.52,206.567 1239.43,207.746 1266,214.447C1347.77,235.07 1420.07,293.815 1458.56,370.911C1473.95,401.739 1483.19,432.734 1488.12,470C1489.8,482.646 1489.8,521.639 1488.13,535.5C1477.83,621.083 1435.93,692.417 1368.5,739.157C1352.3,750.39 1331.62,761.497 1311.64,769.706C1301.52,773.865 1275.57,783 1273.89,783C1273.51,783 1274.11,780.638 1275.23,777.75Z" style="fill:rgb(28,28,30);fill-rule:nonzero;"/>
                </g>
                <g transform="matrix(-2.08343,0,0,2.08343,3103.03,-430.435)">
                    <path d="M1269.55,745.056C1268.5,743.89 1266.03,741.972 1264.07,740.794C1262.11,739.616 1260.32,738.511 1260.09,738.337C1259.87,738.163 1262.7,735.261 1266.38,731.888C1277.58,721.626 1285.77,708.588 1288.1,697.305L1289.35,691.237L1293.11,691.741C1295.17,692.018 1298.3,691.742 1300.07,691.127L1303.27,690.009L1302.75,696.254C1301.64,709.668 1293.89,724.004 1280.02,738.339L1271.47,747.177L1269.55,745.056Z" style="fill:rgb(201,168,76);fill-rule:nonzero;"/>
                </g>
                <g transform="matrix(-2.08343,0,0,2.08343,3103.03,-430.435)">
                    <path d="M1288.08,682.411C1284.21,679.155 1284.01,675.264 1287.53,671.742C1291.1,668.171 1296.59,667.301 1299.91,669.777C1305.16,673.687 1305.23,680.797 1300.04,683.482C1295.68,685.733 1291.59,685.366 1288.08,682.411Z" style="fill:rgb(201,168,76);fill-rule:nonzero;"/>
                </g>
                <g transform="matrix(-2.08343,0,0,2.08343,3103.03,-430.435)">
                    <path d="M1280.4,665.857C1276.13,659.701 1266.05,650.807 1256.65,644.903C1251.91,641.931 1248.05,639.275 1248.06,639C1248.07,638.725 1249.62,636.766 1251.49,634.646L1254.89,630.792L1260.7,634.072C1271.81,640.353 1278.55,645.393 1286.75,653.542C1291.29,658.053 1295,662.201 1295,662.76C1295,663.32 1293.38,664.082 1291.39,664.455C1289.4,664.828 1286.73,666.18 1285.45,667.459L1283.12,669.786L1280.4,665.857Z" style="fill:rgb(201,168,76);fill-rule:nonzero;"/>
                </g>
                <g transform="matrix(-2.08343,0,0,2.08343,3103.03,-430.435)">
                    <path d="M1222.56,636.565C1216.9,634.468 1213.76,631.902 1211.65,627.642C1206.46,617.215 1218.19,605.521 1231.95,607.406C1244.95,609.188 1251.87,620.144 1246.04,629.71C1242.16,636.064 1230.44,639.487 1222.56,636.565Z" style="fill:rgb(201,168,76);fill-rule:nonzero;"/>
                </g>
                <g transform="matrix(-2.08343,0,0,2.08343,3103.03,-430.435)">
                    <path d="M1189,608.201C1165.63,595.638 1152.64,586.076 1148.23,578.201L1145.95,574.143L1151.48,574.143C1156.61,574.143 1157.2,574.392 1159.65,577.603C1164.46,583.917 1186.11,596.641 1205.92,604.799L1211.34,607.032L1208.82,609.766C1207.43,611.27 1206.02,613.287 1205.68,614.25C1205.34,615.213 1204.71,615.999 1204.28,615.999C1203.85,615.998 1196.98,612.489 1189,608.201Z" style="fill:rgb(201,168,76);fill-rule:nonzero;"/>
                </g>
                <g transform="matrix(-2.08343,0,0,2.08343,3103.03,-430.435)">
                    <path d="M1141.31,566.921C1134.55,562.594 1134.96,553.593 1142.07,549.964C1151.82,544.989 1164,550.133 1164,559.228C1164,567.287 1149.53,572.191 1141.31,566.921Z" style="fill:rgb(201,168,76);fill-rule:nonzero;"/>
                </g>
                <g transform="matrix(-2.08343,0,0,2.08343,3103.03,-430.435)">
                    <path d="M1158.68,545.393C1156.35,544.126 1156.08,543.612 1157.1,542.375C1158.93,540.179 1165.8,536.346 1176.76,531.409C1186.28,527.119 1186.48,527.076 1187.26,529.163C1187.69,530.333 1187.92,531.383 1187.77,531.496C1187.62,531.609 1184.12,533.325 1180,535.309C1175.88,537.293 1170.13,540.736 1167.23,542.958C1164.33,545.181 1161.86,546.982 1161.73,546.96C1161.6,546.938 1160.23,546.233 1158.68,545.393Z" style="fill:rgb(201,168,76);fill-rule:nonzero;"/>
                </g>
                <g transform="matrix(-2.08343,0,0,2.08343,3103.03,-430.435)">
                    <path d="M1194.36,530.83C1192.19,529.777 1190,526.077 1190,523.453C1190,520.79 1193.84,518 1197.5,518C1204.54,518 1207.97,525.876 1202.83,530.25C1200.55,532.193 1197.6,532.395 1194.36,530.83Z" style="fill:rgb(201,168,76);fill-rule:nonzero;"/>
                </g>
                <g transform="matrix(-2.08343,0,0,2.08343,3103.03,-430.435)">
                    <path d="M1208,521.5C1208,520.675 1207.46,520 1206.8,520C1204.12,520 1208.04,518.073 1219,514.011C1232.44,509.03 1236.49,507.078 1244.11,501.916C1247.94,499.319 1250.4,498.292 1251.86,498.674C1254.57,499.383 1254.55,500.157 1251.75,502.664C1248.34,505.711 1243.34,508.499 1233.98,512.558C1225.94,516.045 1208.81,523 1208.26,523C1208.12,523 1208,522.325 1208,521.5Z" style="fill:rgb(201,168,76);fill-rule:nonzero;"/>
                </g>
                <g transform="matrix(-2.08343,0,0,2.08343,3103.03,-430.435)">
                    <path d="M1249,494C1243.16,488.158 1250.43,480.163 1258.9,483.116C1264.25,484.979 1265.91,491.547 1261.78,494.443C1258.54,496.71 1251.46,496.465 1249,494Z" style="fill:rgb(201,168,76);fill-rule:nonzero;"/>
                </g>
                <g transform="matrix(-2.08343,0,0,2.08343,3103.03,-430.435)">
                    <path d="M1241.15,476.383C1237.66,473.966 1233.61,471.738 1232.15,471.433C1228.86,470.742 1224.66,468.486 1224.22,467.167C1223.86,466.078 1232.15,466.834 1233,467.968C1233.28,468.335 1236.57,470.058 1240.31,471.795C1244.06,473.533 1248.52,475.946 1250.22,477.158C1253.04,479.165 1253.15,479.429 1251.41,480.111C1248.46,481.267 1247.93,481.074 1241.15,476.383Z" style="fill:rgb(201,168,76);fill-rule:nonzero;"/>
                </g>
                <g transform="matrix(-2.08343,0,0,2.08343,3103.03,-430.435)">
                    <path d="M1206,461.664C1190.44,455.928 1190.65,456.017 1191.19,455.472C1191.92,454.745 1219,464.169 1219,465.149C1219,466.407 1218.51,466.277 1206,461.664Z" style="fill:rgb(201,168,76);fill-rule:nonzero;"/>
                </g>
                <g transform="matrix(-2.08343,0,0,2.08343,3103.03,-430.435)">
                    <path d="M1180.31,452.439C1176.91,451.155 1172.41,449.015 1170.31,447.682C1166.39,445.192 1162.09,441 1163.46,441C1163.88,441 1163.16,440.128 1161.86,439.063C1159.94,437.486 1159.71,436.788 1160.61,435.316C1162.36,432.457 1172.57,427.333 1184,423.584C1189.78,421.69 1195.4,419.817 1196.5,419.423C1197.86,418.936 1198.18,419.035 1197.5,419.73C1196.95,420.293 1194.03,421.549 1191,422.521C1183.54,424.919 1175.17,428.641 1171.29,431.291C1168.87,432.943 1168.21,434.009 1168.62,435.628C1168.99,437.083 1168.5,438.239 1167.1,439.218C1165.05,440.654 1165.05,440.677 1167.84,443.35C1169.39,444.829 1175.12,448.053 1180.58,450.515C1191.01,455.221 1190.85,456.413 1180.31,452.439Z" style="fill:rgb(201,168,76);fill-rule:nonzero;"/>
                </g>
                <g transform="matrix(-2.08343,0,0,2.08343,3103.03,-430.435)">
                    <path d="M1025.75,436.838C1022.36,435.6 1022.35,434.917 1025.63,425.81C1046.6,367.534 1097.57,321.494 1157.5,306.688C1174.51,302.485 1172.76,302.486 1173.92,306.687C1174.49,308.722 1174.85,310.486 1174.72,310.607C1174.6,310.727 1169.55,311.94 1163.5,313.302C1121.01,322.868 1081.49,349.275 1055.45,385.5C1047.96,395.923 1035.44,420.222 1032.13,430.75C1030.88,434.737 1029.55,437.964 1029.18,437.921C1028.81,437.878 1027.26,437.39 1025.75,436.838Z" style="fill:rgb(28,28,30);fill-rule:nonzero;"/>
                </g>
                <g transform="matrix(-2.08343,0,0,2.08343,3103.03,-430.435)">
                    <path d="M1367.1,421.75C1345.51,365.384 1295.51,324.228 1233.75,311.997C1229.24,311.103 1228,310.461 1228,309.011C1228,305.66 1229.18,304 1231.56,304C1235.99,304 1260.67,310.857 1271.09,314.982C1315.69,332.643 1352.85,368.655 1371.9,412.661C1377.63,425.916 1377.59,425.599 1373.88,426.891C1372.13,427.501 1370.43,428 1370.1,428C1369.76,428 1368.41,425.188 1367.1,421.75Z" style="fill:rgb(28,28,30);fill-rule:nonzero;"/>
                </g>
                <g transform="matrix(-2.08343,0,0,2.08343,3103.03,-430.435)">
                    <path d="M1210.5,414.143C1219.77,409.738 1221.8,407.907 1219.51,406.01C1217.4,404.258 1217.63,402.375 1220.16,400.6L1222.32,399.086L1219.67,395.293C1218.21,393.207 1216.06,390.309 1214.89,388.854C1213.72,387.398 1212.94,385.688 1213.15,385.054C1213.36,384.42 1215.33,386.715 1217.52,390.153C1219.71,393.591 1223.27,398.103 1225.43,400.178C1229.27,403.874 1229.32,403.994 1227.52,405.976C1226.51,407.089 1225.28,408 1224.78,408C1224.28,408 1222.43,409.068 1220.68,410.372C1217.75,412.56 1205.24,418.036 1203.33,417.972C1202.87,417.957 1206.1,416.234 1210.5,414.143Z" style="fill:rgb(201,168,76);fill-rule:nonzero;"/>
                </g>
                <g transform="matrix(-2.08343,0,0,2.08343,3103.03,-430.435)">
                    <path d="M1200.5,356.321C1194.14,354.973 1191,350.863 1191,343.895C1191,340.286 1191.57,339.148 1195.02,335.863L1199.05,332.036L1198.77,314.355L1198.5,296.673L1169.81,287.087C1154.04,281.814 1140.86,277.225 1140.53,276.888C1139.92,276.255 1142.21,275.301 1175,262.513C1185.73,258.329 1195.48,254.502 1196.68,254.008C1198.04,253.448 1198.98,252.05 1199.18,250.304C1199.41,248.258 1200.12,247.412 1201.81,247.173C1207.05,246.429 1207,245.992 1207,290.663L1207,332.08L1211,335.885C1214.53,339.243 1215,340.228 1215,344.268C1215,352.062 1207.97,357.905 1200.5,356.321Z" style="fill:rgb(201,168,76);fill-rule:nonzero;"/>
                </g>
            </g>
        </g>
    </g>
    <g transform="matrix(6.30243,0,0,6.29,-6719.68,-1908.23)">
        <g transform="matrix(50,0,0,50,1379.36,371.944)">
        </g>
        <text x="1211.86px" y="371.944px" style="font-family:'Montserrat-Black', 'Montserrat';font-weight:900;font-size:50px;fill:rgb(28,28,30);">BUILD</text>
    </g>
    <g transform="matrix(0.970511,0,0,0.968597,39.0711,-0.965095)">
        <g transform="matrix(2.75555,0,0,2.75555,-2047.4,-452.618)">
            <g transform="matrix(50,0,0,50,1322.41,371.944)">
            </g>
            <text x="1211.86px" y="371.944px" style="font-family:'Montserrat-BoldItalic', 'Montserrat';font-weight:700;font-style:italic;font-size:50px;fill:rgb(28,28,30);">F<tspan x="1243.46px " y="371.944px ">O</tspan>R</text>
        </g>
        <path d="M1628.88,532.128L1977.76,532.128" style="fill:none;"/>
        <g transform="matrix(1,0,0,1,-698.601,0)">
            <path d="M1628.88,532.128L1977.76,532.128" style="fill:none;"/>
        </g>
    </g>
    <g transform="matrix(3.7782,0,0,3.77075,-3650.2,-676.27)">
        <g transform="matrix(50,0,0,50,1490.11,371.944)">
        </g>
        <text x="1211.86px" y="371.944px" style="font-family:'Montserrat-Bold', 'Montserrat';font-weight:700;font-size:50px;fill:rgb(28,28,30);">Y<tspan x="1244.16px " y="371.944px ">O</tspan>URSELF</text>
    </g>
</svg>
